# xmcd
#
# Track frame offsets:
#	150
#	18795
#	39235
#	57637
#	73955
#	86600
#	102300
#	113972
#	126772
#	139560
#	155300
#	172380
#	182572
#	193260
#	205397
#	220365
#	240360
#
# Disc length: 3471 seconds
#
# Revision: 0
# Processed by: cddbd v1.4PL0 Copyright (c) Steve Scherf et al.
# Submitted via: audiograbber 1.80
#
DISCID=f90d8d11
DTITLE=Enrico Caruso - Complete Recordings Vol.6
DYEAR=1900
DGENRE=
TTITLE0=Solo, profugo reietto
TTITLE1=Seigneur Dieu, que vois-je
TTITLE2=Eh!quoi!toujours seule seule?
TTITLE3=O merveille!
TTITLE4=Alerte ou vous etes perdus!
TTITLE5=Que voulez-vous,messieurs?
TTITLE6=Studenti! Udite
TTITLE7=No, non chiuder gli occhi vaghi
TTITLE8=Cielo! e mar!
TTITLE9=Amore o grillo
TTITLE10=Non ve l'avevo detto
TTITLE11=For you alone
TTITLE12=Ora e per sempre addio sante memorie
TTITLE13=Siciliana
TTITLE14=No! Pagliaccio non son
TTITLE15=Addio
TTITLE16=Ai nostri monti ritorneremo
EXTD=
EXTT0=
EXTT1=
EXTT2=
EXTT3=
EXTT4=
EXTT5=
EXTT6=
EXTT7=
EXTT8=
EXTT9=
EXTT10=
EXTT11=
EXTT12=
EXTT13=
EXTT14=
EXTT15=
EXTT16=
PLAYORDER=
